<svg width="151" height="29" viewBox="0 0 151 29" preserveAspectRatio="xMidYMid meet" fill="none" xmlns="http://www.w3.org/2000/svg"><path d="M41.285 7.06h5.402c4.291 0 7.28 2.809 7.28 7.064s-2.977 7.042-7.28 7.042h-5.402V7.059Zm5.402 11.47c2.717 0 4.291-2.004 4.291-4.406 0-2.495-1.483-4.418-4.291-4.418h-2.492v8.825h2.492ZM64.715 18.741H58.59l-.86 2.437h-3.205l5.3-14.118h3.657l5.277 14.118h-3.182l-.86-2.437Zm-5.345-2.6h4.541l-2.264-6.47-2.277 6.47ZM72.528 9.706h-4.009V7.06h10.939v2.646h-3.986v11.472h-2.944V9.706ZM89.376 18.741H83.25l-.86 2.437h-3.205l5.3-14.118h3.657l5.277 14.118h-3.182l-.86-2.437Zm-5.344-2.6h4.54l-2.264-6.47-2.276 6.47ZM107.302 9.438l-4.665 11.74h-.702l-4.643-11.74v11.74h-1.71V7.06h2.446l4.258 10.748 4.28-10.748h2.446v14.118h-1.71V9.438ZM116.837 15.209l-5.401-8.15h1.992l4.258 6.564 4.258-6.563h1.993l-5.39 8.149v5.969h-1.71v-5.97ZM128.07 9.788v11.378h-1.71V7.06h1.744l7.892 11.157V7.06h1.71v14.118h-1.642l-7.994-11.39ZM144.942 8.633h-4.337V7.071H151v1.562h-4.36v12.544h-1.698V8.633Z" class="fill-current"></path><path fill-rule="evenodd" clip-rule="evenodd" d="M19.454 9.462c1.28.163 2.367.594 3.137 1.34.69.665 1.132 1.61 1.234 2.857.113 1.375-.215 2.553-.883 3.427-.657.863-1.665 1.458-2.91 1.69h-1.79v2.822h1.937l.136-.023c2.015-.327 3.668-1.306 4.767-2.752 1.087-1.434 1.63-3.287 1.46-5.397-.17-1.982-.928-3.533-2.106-4.664-1.234-1.189-2.91-1.888-4.8-2.098l-.103-.012H5.741a1.577 1.577 0 0 0-.928-.291c-.918 0-1.654.758-1.654 1.702s.736 1.702 1.654 1.702c.34 0 .656-.105.928-.292 4.575-.011 9.138-.011 13.713-.011Zm-4.36 9.315v2.82H5.752c-.26.188-.577.292-.928.292-.917 0-1.653-.757-1.653-1.702 0-.944.736-1.702 1.653-1.702.34 0 .657.105.928.292h6.602v-3.241H7.757c-.759 0-1.37-.63-1.37-1.41 0-.782.611-1.412 1.37-1.412h11.142c.26-.186.578-.291.929-.291.917 0 1.653.758 1.653 1.702s-.736 1.702-1.653 1.702a1.63 1.63 0 0 1-.929-.291h-3.805v3.241Zm4.643-15.459H2.582c-.26.187-.578.291-.929.291C.736 3.61 0 2.852 0 1.907 0 .963.736.205 1.653.205c.34 0 .657.105.929.292h17.325c5.571.49 9.274 3.45 11.176 7.24a14.216 14.216 0 0 1 1.472 6.167 14.404 14.404 0 0 1-1.28 6.19c-1.766 3.882-5.321 6.972-10.587 7.613l-.09.011H2.593c-.26.187-.577.292-.928.292-.918 0-1.654-.758-1.654-1.702 0-.945.736-1.702 1.654-1.702.34 0 .656.105.928.291h17.869c4.167-.536 6.964-2.95 8.345-5.992a11.721 11.721 0 0 0 1.03-4.966c-.022-1.703-.407-3.393-1.177-4.92-1.506-2.961-4.462-5.281-8.923-5.701Z" fill="#3D8ECD"></path></svg>